<?xml version='1.0' encoding='UTF-8' standalone='no'?>
<svg height="314pt" xmlns="http://www.w3.org/2000/svg" xmlns:xlink="http://www.w3.org/1999/xlink" width="418pt" viewBox="0 0 418 314">
 <title>gl2ps_renderer figure</title>
 <desc>
Creator: GL2PS 1.4.2, (C) 1999-2020 C. Geuzaine
For: Octave
CreationDate: Sat Mar 13 19:57:42 2021
</desc>
 <defs/>
 <polygon fill="#ffffff" points="0,0 418,0 418,314 0,314"/>
 <g>
  <polygon fill="#ffffff" points="0,314 418,314 418,0 0,0" shape-rendering="crispEdges"/>
  <clipPath id="cp00418314">
   <polygon points="0,314 418,314 418,0 0,0"/>
  </clipPath>
  <g clip-path="url(#cp00418314)">
   <polygon fill="#ffffff" points="54.4343,279.499 378.946,279.499 378.946,23.5533 54.4343,23.5533" shape-rendering="crispEdges"/>
   <polyline stroke-linecap="butt" fill="none" stroke-dasharray="16,0" stroke="#262626" stroke-width="0.5" stroke-opacity="0.15" points="54.4343,279.499 54.4343,23.5533" stroke-linejoin="miter"/>
   <polyline stroke-linecap="butt" fill="none" stroke-dasharray="16,0" stroke="#262626" stroke-width="0.5" stroke-opacity="0.15" points="108.52,279.499 108.52,23.5533" stroke-linejoin="miter"/>
   <polyline stroke-linecap="butt" fill="none" stroke-dasharray="16,0" stroke="#262626" stroke-width="0.5" stroke-opacity="0.15" points="162.605,279.499 162.605,23.5533" stroke-linejoin="miter"/>
   <polyline stroke-linecap="butt" fill="none" stroke-dasharray="16,0" stroke="#262626" stroke-width="0.5" stroke-opacity="0.15" points="216.69,279.499 216.69,23.5533" stroke-linejoin="miter"/>
   <polyline stroke-linecap="butt" fill="none" stroke-dasharray="16,0" stroke="#262626" stroke-width="0.5" stroke-opacity="0.15" points="270.776,279.499 270.776,23.5533" stroke-linejoin="miter"/>
   <polyline stroke-linecap="butt" fill="none" stroke-dasharray="16,0" stroke="#262626" stroke-width="0.5" stroke-opacity="0.15" points="324.861,279.499 324.861,23.5533" stroke-linejoin="miter"/>
   <polyline stroke-linecap="butt" fill="none" stroke-dasharray="16,0" stroke="#262626" stroke-width="0.5" stroke-opacity="0.15" points="378.946,279.499 378.946,23.5533" stroke-linejoin="miter"/>
   <polyline stroke-linecap="butt" fill="none" stroke="#262626" stroke-width="0.5" points="54.4343,279.499 54.4343,276.255" stroke-linejoin="miter"/>
   <polyline stroke-linecap="butt" fill="none" stroke="#262626" stroke-width="0.5" points="108.52,279.499 108.52,276.255" stroke-linejoin="miter"/>
   <polyline stroke-linecap="butt" fill="none" stroke="#262626" stroke-width="0.5" points="162.605,279.499 162.605,276.255" stroke-linejoin="miter"/>
   <polyline stroke-linecap="butt" fill="none" stroke="#262626" stroke-width="0.5" points="216.69,279.499 216.69,276.255" stroke-linejoin="miter"/>
   <polyline stroke-linecap="butt" fill="none" stroke="#262626" stroke-width="0.5" points="270.776,279.499 270.776,276.255" stroke-linejoin="miter"/>
   <polyline stroke-linecap="butt" fill="none" stroke="#262626" stroke-width="0.5" points="324.861,279.499 324.861,276.255" stroke-linejoin="miter"/>
   <polyline stroke-linecap="butt" fill="none" stroke="#262626" stroke-width="0.5" points="378.946,279.499 378.946,276.255" stroke-linejoin="miter"/>
   <text font-weight="normal" transform="translate(51.4343,294.998) rotate(-0,3,-8)" font-size="10" font-style="normal" font-family="FreeSans" xml:space="preserve">
    <tspan x="0 " y="-0" fill="rgb(38,38,38)">0</tspan>
   </text>
   <text font-weight="normal" transform="translate(105.52,294.998) rotate(-0,3,-8)" font-size="10" font-style="normal" font-family="FreeSans" xml:space="preserve">
    <tspan x="0 " y="-0" fill="rgb(38,38,38)">2</tspan>
   </text>
   <text font-weight="normal" transform="translate(159.605,294.998) rotate(-0,3,-8)" font-size="10" font-style="normal" font-family="FreeSans" xml:space="preserve">
    <tspan x="0 " y="-0" fill="rgb(38,38,38)">4</tspan>
   </text>
   <text font-weight="normal" transform="translate(213.69,294.998) rotate(-0,3,-8)" font-size="10" font-style="normal" font-family="FreeSans" xml:space="preserve">
    <tspan x="0 " y="-0" fill="rgb(38,38,38)">6</tspan>
   </text>
   <text font-weight="normal" transform="translate(267.776,294.998) rotate(-0,3,-8)" font-size="10" font-style="normal" font-family="FreeSans" xml:space="preserve">
    <tspan x="0 " y="-0" fill="rgb(38,38,38)">8</tspan>
   </text>
   <text font-weight="normal" transform="translate(318.861,294.998) rotate(-0,6,-8)" font-size="10" font-style="normal" font-family="FreeSans" xml:space="preserve">
    <tspan x="0 6 " y="-0" fill="rgb(38,38,38)">10</tspan>
   </text>
   <text font-weight="normal" transform="translate(372.946,294.998) rotate(-0,6,-8)" font-size="10" font-style="normal" font-family="FreeSans" xml:space="preserve">
    <tspan x="0 6 " y="-0" fill="rgb(38,38,38)">12</tspan>
   </text>
   <polyline stroke-linecap="butt" fill="none" stroke-dasharray="16,0" stroke="#262626" stroke-width="0.5" stroke-opacity="0.15" points="54.4343,279.499 378.946,279.499" stroke-linejoin="miter"/>
   <polyline stroke-linecap="butt" fill="none" stroke-dasharray="16,0" stroke="#262626" stroke-width="0.5" stroke-opacity="0.15" points="54.4343,242.935 378.946,242.935" stroke-linejoin="miter"/>
   <polyline stroke-linecap="butt" fill="none" stroke-dasharray="16,0" stroke="#262626" stroke-width="0.5" stroke-opacity="0.15" points="54.4343,206.372 378.946,206.372" stroke-linejoin="miter"/>
   <polyline stroke-linecap="butt" fill="none" stroke-dasharray="16,0" stroke="#262626" stroke-width="0.5" stroke-opacity="0.15" points="54.4343,169.808 378.946,169.808" stroke-linejoin="miter"/>
   <polyline stroke-linecap="butt" fill="none" stroke-dasharray="16,0" stroke="#262626" stroke-width="0.5" stroke-opacity="0.15" points="54.4343,133.244 378.946,133.244" stroke-linejoin="miter"/>
   <polyline stroke-linecap="butt" fill="none" stroke-dasharray="16,0" stroke="#262626" stroke-width="0.5" stroke-opacity="0.15" points="54.4343,96.6807 378.946,96.6807" stroke-linejoin="miter"/>
   <polyline stroke-linecap="butt" fill="none" stroke-dasharray="16,0" stroke="#262626" stroke-width="0.5" stroke-opacity="0.15" points="54.4343,60.117 378.946,60.117" stroke-linejoin="miter"/>
   <polyline stroke-linecap="butt" fill="none" stroke-dasharray="16,0" stroke="#262626" stroke-width="0.5" stroke-opacity="0.15" points="54.4343,23.5533 378.946,23.5533" stroke-linejoin="miter"/>
   <polyline stroke-linecap="butt" fill="none" stroke="#262626" stroke-width="0.5" points="54.4343,279.499 57.6745,279.499" stroke-linejoin="miter"/>
   <polyline stroke-linecap="butt" fill="none" stroke="#262626" stroke-width="0.5" points="54.4343,242.935 57.6745,242.935" stroke-linejoin="miter"/>
   <polyline stroke-linecap="butt" fill="none" stroke="#262626" stroke-width="0.5" points="54.4343,206.372 57.6745,206.372" stroke-linejoin="miter"/>
   <polyline stroke-linecap="butt" fill="none" stroke="#262626" stroke-width="0.5" points="54.4343,169.808 57.6745,169.808" stroke-linejoin="miter"/>
   <polyline stroke-linecap="butt" fill="none" stroke="#262626" stroke-width="0.5" points="54.4343,133.244 57.6745,133.244" stroke-linejoin="miter"/>
   <polyline stroke-linecap="butt" fill="none" stroke="#262626" stroke-width="0.5" points="54.4343,96.6807 57.6745,96.6807" stroke-linejoin="miter"/>
   <polyline stroke-linecap="butt" fill="none" stroke="#262626" stroke-width="0.5" points="54.4343,60.117 57.6745,60.117" stroke-linejoin="miter"/>
   <polyline stroke-linecap="butt" fill="none" stroke="#262626" stroke-width="0.5" points="54.4343,23.5533 57.6745,23.5533" stroke-linejoin="miter"/>
   <text font-weight="normal" transform="translate(43.4418,283.499) rotate(-0,6,-4)" font-size="10" font-style="normal" font-family="FreeSans" xml:space="preserve">
    <tspan x="0 " y="-0" fill="rgb(38,38,38)">0</tspan>
   </text>
   <text font-weight="normal" transform="translate(34.4418,246.935) rotate(-0,15,-4)" font-size="10" font-style="normal" font-family="FreeSans" xml:space="preserve">
    <tspan x="0 6 9 " y="-0" fill="rgb(38,38,38)">0.2</tspan>
   </text>
   <text font-weight="normal" transform="translate(34.4418,210.372) rotate(-0,15,-4)" font-size="10" font-style="normal" font-family="FreeSans" xml:space="preserve">
    <tspan x="0 6 9 " y="-0" fill="rgb(38,38,38)">0.4</tspan>
   </text>
   <text font-weight="normal" transform="translate(34.4418,173.808) rotate(-0,15,-4)" font-size="10" font-style="normal" font-family="FreeSans" xml:space="preserve">
    <tspan x="0 6 9 " y="-0" fill="rgb(38,38,38)">0.6</tspan>
   </text>
   <text font-weight="normal" transform="translate(34.4418,137.244) rotate(-0,15,-4)" font-size="10" font-style="normal" font-family="FreeSans" xml:space="preserve">
    <tspan x="0 6 9 " y="-0" fill="rgb(38,38,38)">0.8</tspan>
   </text>
   <text font-weight="normal" transform="translate(43.4418,100.681) rotate(-0,6,-4)" font-size="10" font-style="normal" font-family="FreeSans" xml:space="preserve">
    <tspan x="0 " y="-0" fill="rgb(38,38,38)">1</tspan>
   </text>
   <text font-weight="normal" transform="translate(34.4418,64.117) rotate(-0,15,-4)" font-size="10" font-style="normal" font-family="FreeSans" xml:space="preserve">
    <tspan x="0 6 9 " y="-0" fill="rgb(38,38,38)">1.2</tspan>
   </text>
   <text font-weight="normal" transform="translate(34.4418,27.5533) rotate(-0,15,-4)" font-size="10" font-style="normal" font-family="FreeSans" xml:space="preserve">
    <tspan x="0 6 9 " y="-0" fill="rgb(38,38,38)">1.4</tspan>
   </text>
   <polyline stroke-linecap="square" fill="none" stroke-dasharray="16,0" stroke="#262626" stroke-width="0.5" points="54.4343,279.499 378.946,279.499" stroke-linejoin="miter"/>
   <polyline stroke-linecap="square" fill="none" stroke-dasharray="16,0" stroke="#262626" stroke-width="0.5" points="54.4343,279.499 54.4343,23.5533" stroke-linejoin="miter"/>
   <polyline stroke-linecap="butt" fill="none" stroke="#0071bc" stroke-width="0.5" points="54.4343,279.499 57.7122,279.499 60.9901,279.499 64.268,279.499 67.5459,279.499 70.8238,279.499 74.1017,279.499 77.3796,279.499 80.6575,279.499 83.9354,269.993 87.2133,269.993 90.4912,269.993 93.7691,269.993 97.047,269.993 100.325,269.993 103.603,269.993 106.881,269.993 110.159,269.993 113.436,269.993 116.714,269.993 119.992,269.993 123.27,269.993 126.548,269.993 129.826,269.993 133.104,269.993 136.382,269.627 139.66,269.627 142.938,269.627 146.215,269.627 149.493,269.627 152.771,269.627 156.049,269.627 159.327,269.627 162.605,269.627 165.883,269.627 169.161,269.627 172.439,269.627 175.717,269.627 178.994,269.627 182.272,269.627 185.55,269.627 188.828,269.627 192.106,269.261 195.384,269.261 198.662,269.261 201.94,269.261 205.218,269.261 208.496,269.261 211.773,269.261 215.051,269.261 218.329,269.261 221.607,269.261 224.885,269.261 228.163,269.261 231.441,269.261 234.719,269.261 237.997,269.261 241.275,269.261 244.552,268.896 247.83,268.896 251.108,268.896 254.386,268.896 257.664,268.896 260.942,268.896 264.22,268.896 267.498,268.896 270.776,268.896 274.054,268.896 277.331,268.896 280.609,268.896 283.887,268.896 287.165,268.896 290.443,268.896 293.721,268.896 296.999,268.896 300.277,268.53 303.555,268.53 306.833,268.53 310.11,268.53 313.388,268.53 316.666,268.53 319.944,268.53 323.222,268.53 326.5,268.53 329.778,268.53 333.056,268.53 336.334,268.53 339.612,268.53 342.889,268.53 346.167,268.53 349.445,268.53 352.723,268.164 356.001,268.164 359.279,268.164 362.557,268.164 365.835,268.164 369.113,268.164 372.391,268.164 375.668,268.164 378.946,268.164" stroke-linejoin="round"/>
   <polyline stroke-linecap="butt" fill="none" stroke="#0071bc" stroke-width="0.5" points="54.4343,279.499 57.7122,278.923 60.9901,278.347 64.268,277.771 67.5459,277.195 70.8238,276.618 74.1017,276.042 77.3796,275.466 80.6575,274.89 83.9354,274.314 87.2133,273.738 90.4912,273.161 93.7691,272.585 97.047,272.009 100.325,271.433 103.603,270.857 106.881,270.281 110.159,269.982 113.436,269.959 116.714,269.937 119.992,269.915 123.27,269.893 126.548,269.871 129.826,269.849 133.104,269.826 136.382,269.804 139.66,269.782 142.938,269.76 146.215,269.738 149.493,269.716 152.771,269.693 156.049,269.671 159.327,269.649 162.605,269.627 165.883,269.605 169.161,269.583 172.439,269.56 175.717,269.538 178.994,269.516 182.272,269.494 185.55,269.472 188.828,269.45 192.106,269.428 195.384,269.405 198.662,269.383 201.94,269.361 205.218,269.339 208.496,269.317 211.773,269.295 215.051,269.272 218.329,269.25 221.607,269.228 224.885,269.206 228.163,269.184 231.441,269.162 234.719,269.139 237.997,269.117 241.275,269.095 244.552,269.073 247.83,269.051 251.108,269.029 254.386,269.006 257.664,268.984 260.942,268.962 264.22,268.94 267.498,268.918 270.776,268.896 274.054,268.874 277.331,268.851 280.609,268.829 283.887,268.807 287.165,268.785 290.443,268.763 293.721,268.741 296.999,268.718 300.277,268.696 303.555,268.674 306.833,268.652 310.11,268.63 313.388,268.608 316.666,268.585 319.944,268.563 323.222,268.541 326.5,268.519 329.778,268.497 333.056,268.475 336.334,268.452 339.612,268.43 342.889,268.408 346.167,268.386 349.445,268.364 352.723,268.342 356.001,268.32 359.279,268.297 362.557,268.275 365.835,268.253 369.113,268.231 372.391,268.209 375.668,268.187 378.946,268.164" stroke-linejoin="round"/>
   <polyline stroke-linecap="butt" fill="none" stroke="#0071bc" stroke-width="0.5" points="54.4343,279.499 57.7122,278.648 60.9901,277.805 64.268,276.976 67.5459,276.167 70.8238,275.382 74.1017,274.629 77.3796,273.911 80.6575,273.236 83.9354,272.608 87.2133,272.034 90.4912,271.519 93.7691,271.068 97.047,270.688 100.325,270.384 103.603,270.161 106.881,270.026 110.159,269.972 113.436,269.934 116.714,269.9 119.992,269.87 123.27,269.844 126.548,269.821 129.826,269.8 133.104,269.781 136.382,269.763 139.66,269.747 142.938,269.731 146.215,269.716 149.493,269.701 152.771,269.684 156.049,269.667 159.327,269.648 162.605,269.627 165.883,269.605 169.161,269.583 172.439,269.56 175.717,269.538 178.994,269.516 182.272,269.494 185.55,269.472 188.828,269.45 192.106,269.428 195.384,269.405 198.662,269.383 201.94,269.361 205.218,269.339 208.496,269.317 211.773,269.295 215.051,269.272 218.329,269.25 221.607,269.228 224.885,269.206 228.163,269.184 231.441,269.162 234.719,269.139 237.997,269.117 241.275,269.095 244.552,269.073 247.83,269.051 251.108,269.029 254.386,269.006 257.664,268.984 260.942,268.962 264.22,268.94 267.498,268.918 270.776,268.896 274.054,268.874 277.331,268.851 280.609,268.829 283.887,268.807 287.165,268.785 290.443,268.763 293.721,268.741 296.999,268.718 300.277,268.696 303.555,268.674 306.833,268.652 310.11,268.63 313.388,268.608 316.666,268.585 319.944,268.563 323.222,268.541 326.5,268.519 329.778,268.497 333.056,268.475 336.334,268.452 339.612,268.43 342.889,268.408 346.167,268.386 349.445,268.364 352.723,268.342 356.001,268.32 359.279,268.297 362.557,268.275 365.835,268.253 369.113,268.231 372.391,268.209 375.668,268.187 378.946,268.164" stroke-linejoin="round"/>
   <polyline stroke-linecap="butt" fill="none" stroke="#0071bc" stroke-width="0.5" points="54.4343,279.499 57.7122,269.993 60.9901,269.993 64.268,269.993 67.5459,269.993 70.8238,269.993 74.1017,269.993 77.3796,269.993 80.6575,269.993 83.9354,269.993 87.2133,269.993 90.4912,269.993 93.7691,269.993 97.047,269.993 100.325,269.993 103.603,269.993 106.881,269.993 110.159,269.627 113.436,269.627 116.714,269.627 119.992,269.627 123.27,269.627 126.548,269.627 129.826,269.627 133.104,269.627 136.382,269.627 139.66,269.627 142.938,269.627 146.215,269.627 149.493,269.627 152.771,269.627 156.049,269.627 159.327,269.627 162.605,269.627 165.883,269.261 169.161,269.261 172.439,269.261 175.717,269.261 178.994,269.261 182.272,269.261 185.55,269.261 188.828,269.261 192.106,269.261 195.384,269.261 198.662,269.261 201.94,269.261 205.218,269.261 208.496,269.261 211.773,269.261 215.051,269.261 218.329,268.896 221.607,268.896 224.885,268.896 228.163,268.896 231.441,268.896 234.719,268.896 237.997,268.896 241.275,268.896 244.552,268.896 247.83,268.896 251.108,268.896 254.386,268.896 257.664,268.896 260.942,268.896 264.22,268.896 267.498,268.896 270.776,268.896 274.054,268.53 277.331,268.53 280.609,268.53 283.887,268.53 287.165,268.53 290.443,268.53 293.721,268.53 296.999,268.53 300.277,268.53 303.555,268.53 306.833,268.53 310.11,268.53 313.388,268.53 316.666,268.53 319.944,268.53 323.222,268.53 326.5,268.164 329.778,268.164 333.056,268.164 336.334,268.164 339.612,268.164 342.889,268.164 346.167,268.164 349.445,268.164 352.723,268.164 356.001,268.164 359.279,268.164 362.557,268.164 365.835,268.164 369.113,268.164 372.391,268.164 375.668,268.164 378.946,268.164" stroke-linejoin="round"/>
   <polygon fill="#0071bc" points="56.8613,281.263 55.3613,282.352 53.5072,282.352 52.0072,281.263 51.4343,279.499 52.0072,277.736 53.5072,276.646 55.3613,276.646 56.8613,277.736 57.4343,279.499" shape-rendering="crispEdges"/>
   <polyline stroke-linecap="round" fill="none" stroke="#0071bc" stroke-width="0.5" points="57.4343,279.499 56.8613,281.263 55.3613,282.352 53.5072,282.352 52.0072,281.263 51.4343,279.499 52.0072,277.736 53.5072,276.646 55.3613,276.646 56.8613,277.736 57.4343,279.499" stroke-linejoin="round"/>
   <polygon fill="#0071bc" points="110.947,271.756 109.447,272.846 107.593,272.846 106.093,271.756 105.52,269.993 106.093,268.229 107.593,267.139 109.447,267.139 110.947,268.229 111.52,269.993" shape-rendering="crispEdges"/>
   <polyline stroke-linecap="round" fill="none" stroke="#0071bc" stroke-width="0.5" points="111.52,269.993 110.947,271.756 109.447,272.846 107.593,272.846 106.093,271.756 105.52,269.993 106.093,268.229 107.593,267.139 109.447,267.139 110.947,268.229 111.52,269.993" stroke-linejoin="round"/>
   <polygon fill="#0071bc" points="165.032,271.39 163.532,272.48 161.678,272.48 160.178,271.39 159.605,269.627 160.178,267.864 161.678,266.774 163.532,266.774 165.032,267.864 165.605,269.627" shape-rendering="crispEdges"/>
   <polyline stroke-linecap="round" fill="none" stroke="#0071bc" stroke-width="0.5" points="165.605,269.627 165.032,271.39 163.532,272.48 161.678,272.48 160.178,271.39 159.605,269.627 160.178,267.864 161.678,266.774 163.532,266.774 165.032,267.864 165.605,269.627" stroke-linejoin="round"/>
   <polygon fill="#0071bc" points="219.117,271.025 217.617,272.115 215.763,272.115 214.263,271.025 213.69,269.261 214.263,267.498 215.763,266.408 217.617,266.408 219.117,267.498 219.69,269.261" shape-rendering="crispEdges"/>
   <polyline stroke-linecap="round" fill="none" stroke="#0071bc" stroke-width="0.5" points="219.69,269.261 219.117,271.025 217.617,272.115 215.763,272.115 214.263,271.025 213.69,269.261 214.263,267.498 215.763,266.408 217.617,266.408 219.117,267.498 219.69,269.261" stroke-linejoin="round"/>
   <polygon fill="#0071bc" points="273.203,270.659 271.703,271.749 269.849,271.749 268.349,270.659 267.776,268.896 268.349,267.132 269.849,266.043 271.703,266.043 273.203,267.132 273.776,268.896" shape-rendering="crispEdges"/>
   <polyline stroke-linecap="round" fill="none" stroke="#0071bc" stroke-width="0.5" points="273.776,268.896 273.203,270.659 271.703,271.749 269.849,271.749 268.349,270.659 267.776,268.896 268.349,267.132 269.849,266.043 271.703,266.043 273.203,267.132 273.776,268.896" stroke-linejoin="round"/>
   <polygon fill="#0071bc" points="327.288,270.293 325.788,271.383 323.934,271.383 322.434,270.293 321.861,268.53 322.434,266.767 323.934,265.677 325.788,265.677 327.288,266.767 327.861,268.53" shape-rendering="crispEdges"/>
   <polyline stroke-linecap="round" fill="none" stroke="#0071bc" stroke-width="0.5" points="327.861,268.53 327.288,270.293 325.788,271.383 323.934,271.383 322.434,270.293 321.861,268.53 322.434,266.767 323.934,265.677 325.788,265.677 327.288,266.767 327.861,268.53" stroke-linejoin="round"/>
   <polygon fill="#0071bc" points="381.373,269.928 379.873,271.018 378.019,271.018 376.519,269.928 375.946,268.164 376.519,266.401 378.019,265.311 379.873,265.311 381.373,266.401 381.946,268.164" shape-rendering="crispEdges"/>
   <polyline stroke-linecap="round" fill="none" stroke="#0071bc" stroke-width="0.5" points="381.946,268.164 381.373,269.928 379.873,271.018 378.019,271.018 376.519,269.928 375.946,268.164 376.519,266.401 378.019,265.311 379.873,265.311 381.373,266.401 381.946,268.164" stroke-linejoin="round"/>
   <polyline stroke-linecap="butt" fill="none" stroke="#d85218" stroke-width="0.5" points="54.4343,279.499 57.7122,279.499 60.9901,279.499 64.268,279.499 67.5459,279.499 70.8238,279.499 74.1017,279.499 77.3796,279.499 80.6575,279.499 83.9354,196.865 87.2133,196.865 90.4912,196.865 93.7691,196.865 97.047,196.865 100.325,196.865 103.603,196.865 106.881,196.865 110.159,196.865 113.436,196.865 116.714,196.865 119.992,196.865 123.27,196.865 126.548,196.865 129.826,196.865 133.104,196.865 136.382,196.5 139.66,196.5 142.938,196.5 146.215,196.5 149.493,196.5 152.771,196.5 156.049,196.5 159.327,196.5 162.605,196.5 165.883,196.5 169.161,196.5 172.439,196.5 175.717,196.5 178.994,196.5 182.272,196.5 185.55,196.5 188.828,196.5 192.106,196.134 195.384,196.134 198.662,196.134 201.94,196.134 205.218,196.134 208.496,196.134 211.773,196.134 215.051,196.134 218.329,196.134 221.607,196.134 224.885,196.134 228.163,196.134 231.441,196.134 234.719,196.134 237.997,196.134 241.275,196.134 244.552,195.768 247.83,195.768 251.108,195.768 254.386,195.768 257.664,195.768 260.942,195.768 264.22,195.768 267.498,195.768 270.776,195.768 274.054,195.768 277.331,195.768 280.609,195.768 283.887,195.768 287.165,195.768 290.443,195.768 293.721,195.768 296.999,195.768 300.277,195.403 303.555,195.403 306.833,195.403 310.11,195.403 313.388,195.403 316.666,195.403 319.944,195.403 323.222,195.403 326.5,195.403 329.778,195.403 333.056,195.403 336.334,195.403 339.612,195.403 342.889,195.403 346.167,195.403 349.445,195.403 352.723,195.037 356.001,195.037 359.279,195.037 362.557,195.037 365.835,195.037 369.113,195.037 372.391,195.037 375.668,195.037 378.946,195.037" stroke-linejoin="round"/>
   <polyline stroke-linecap="butt" fill="none" stroke="#d85218" stroke-width="0.5" points="54.4343,279.499 57.7122,274.491 60.9901,269.483 64.268,264.475 67.5459,259.467 70.8238,254.459 74.1017,249.45 77.3796,244.442 80.6575,239.434 83.9354,234.426 87.2133,229.418 90.4912,224.41 93.7691,219.402 97.047,214.394 100.325,209.385 103.603,204.377 106.881,199.369 110.159,196.854 113.436,196.832 116.714,196.81 119.992,196.788 123.27,196.765 126.548,196.743 129.826,196.721 133.104,196.699 136.382,196.677 139.66,196.655 142.938,196.633 146.215,196.61 149.493,196.588 152.771,196.566 156.049,196.544 159.327,196.522 162.605,196.5 165.883,196.477 169.161,196.455 172.439,196.433 175.717,196.411 178.994,196.389 182.272,196.367 185.55,196.344 188.828,196.322 192.106,196.3 195.384,196.278 198.662,196.256 201.94,196.234 205.218,196.211 208.496,196.189 211.773,196.167 215.051,196.145 218.329,196.123 221.607,196.101 224.885,196.079 228.163,196.056 231.441,196.034 234.719,196.012 237.997,195.99 241.275,195.968 244.552,195.946 247.83,195.923 251.108,195.901 254.386,195.879 257.664,195.857 260.942,195.835 264.22,195.813 267.498,195.79 270.776,195.768 274.054,195.746 277.331,195.724 280.609,195.702 283.887,195.68 287.165,195.658 290.443,195.635 293.721,195.613 296.999,195.591 300.277,195.569 303.555,195.547 306.833,195.525 310.11,195.502 313.388,195.48 316.666,195.458 319.944,195.436 323.222,195.414 326.5,195.392 329.778,195.369 333.056,195.347 336.334,195.325 339.612,195.303 342.889,195.281 346.167,195.259 349.445,195.236 352.723,195.214 356.001,195.192 359.279,195.17 362.557,195.148 365.835,195.126 369.113,195.104 372.391,195.081 375.668,195.059 378.946,195.037" stroke-linejoin="round"/>
   <polyline stroke-linecap="butt" fill="none" stroke="#d85218" stroke-width="0.5" points="54.4343,279.499 57.7122,272.008 60.9901,264.575 64.268,257.253 67.5459,250.097 70.8238,243.161 74.1017,236.501 77.3796,230.17 80.6575,224.223 83.9354,218.714 87.2133,213.698 90.4912,209.229 93.7691,205.361 97.047,202.15 100.325,199.65 103.603,197.915 106.881,196.999 110.159,196.844 113.436,196.805 116.714,196.77 119.992,196.74 123.27,196.713 126.548,196.69 129.826,196.669 133.104,196.65 136.382,196.633 139.66,196.617 142.938,196.602 146.215,196.587 149.493,196.572 152.771,196.556 156.049,196.539 159.327,196.52 162.605,196.5 165.883,196.477 169.161,196.455 172.439,196.433 175.717,196.411 178.994,196.389 182.272,196.367 185.55,196.344 188.828,196.322 192.106,196.3 195.384,196.278 198.662,196.256 201.94,196.234 205.218,196.211 208.496,196.189 211.773,196.167 215.051,196.145 218.329,196.123 221.607,196.101 224.885,196.079 228.163,196.056 231.441,196.034 234.719,196.012 237.997,195.99 241.275,195.968 244.552,195.946 247.83,195.923 251.108,195.901 254.386,195.879 257.664,195.857 260.942,195.835 264.22,195.813 267.498,195.79 270.776,195.768 274.054,195.746 277.331,195.724 280.609,195.702 283.887,195.68 287.165,195.658 290.443,195.635 293.721,195.613 296.999,195.591 300.277,195.569 303.555,195.547 306.833,195.525 310.11,195.502 313.388,195.48 316.666,195.458 319.944,195.436 323.222,195.414 326.5,195.392 329.778,195.369 333.056,195.347 336.334,195.325 339.612,195.303 342.889,195.281 346.167,195.259 349.445,195.236 352.723,195.214 356.001,195.192 359.279,195.17 362.557,195.148 365.835,195.126 369.113,195.104 372.391,195.081 375.668,195.059 378.946,195.037" stroke-linejoin="round"/>
   <polyline stroke-linecap="butt" fill="none" stroke="#d85218" stroke-width="0.5" points="54.4343,279.499 57.7122,196.865 60.9901,196.865 64.268,196.865 67.5459,196.865 70.8238,196.865 74.1017,196.865 77.3796,196.865 80.6575,196.865 83.9354,196.865 87.2133,196.865 90.4912,196.865 93.7691,196.865 97.047,196.865 100.325,196.865 103.603,196.865 106.881,196.865 110.159,196.5 113.436,196.5 116.714,196.5 119.992,196.5 123.27,196.5 126.548,196.5 129.826,196.5 133.104,196.5 136.382,196.5 139.66,196.5 142.938,196.5 146.215,196.5 149.493,196.5 152.771,196.5 156.049,196.5 159.327,196.5 162.605,196.5 165.883,196.134 169.161,196.134 172.439,196.134 175.717,196.134 178.994,196.134 182.272,196.134 185.55,196.134 188.828,196.134 192.106,196.134 195.384,196.134 198.662,196.134 201.94,196.134 205.218,196.134 208.496,196.134 211.773,196.134 215.051,196.134 218.329,195.768 221.607,195.768 224.885,195.768 228.163,195.768 231.441,195.768 234.719,195.768 237.997,195.768 241.275,195.768 244.552,195.768 247.83,195.768 251.108,195.768 254.386,195.768 257.664,195.768 260.942,195.768 264.22,195.768 267.498,195.768 270.776,195.768 274.054,195.403 277.331,195.403 280.609,195.403 283.887,195.403 287.165,195.403 290.443,195.403 293.721,195.403 296.999,195.403 300.277,195.403 303.555,195.403 306.833,195.403 310.11,195.403 313.388,195.403 316.666,195.403 319.944,195.403 323.222,195.403 326.5,195.037 329.778,195.037 333.056,195.037 336.334,195.037 339.612,195.037 342.889,195.037 346.167,195.037 349.445,195.037 352.723,195.037 356.001,195.037 359.279,195.037 362.557,195.037 365.835,195.037 369.113,195.037 372.391,195.037 375.668,195.037 378.946,195.037" stroke-linejoin="round"/>
   <polygon fill="#d85218" points="56.8613,281.263 55.3613,282.352 53.5072,282.352 52.0072,281.263 51.4343,279.499 52.0072,277.736 53.5072,276.646 55.3613,276.646 56.8613,277.736 57.4343,279.499" shape-rendering="crispEdges"/>
   <polyline stroke-linecap="round" fill="none" stroke="#d85218" stroke-width="0.5" points="57.4343,279.499 56.8613,281.263 55.3613,282.352 53.5072,282.352 52.0072,281.263 51.4343,279.499 52.0072,277.736 53.5072,276.646 55.3613,276.646 56.8613,277.736 57.4343,279.499" stroke-linejoin="round"/>
   <polygon fill="#d85218" points="110.947,198.629 109.447,199.718 107.593,199.718 106.093,198.629 105.52,196.865 106.093,195.102 107.593,194.012 109.447,194.012 110.947,195.102 111.52,196.865" shape-rendering="crispEdges"/>
   <polyline stroke-linecap="round" fill="none" stroke="#d85218" stroke-width="0.5" points="111.52,196.865 110.947,198.629 109.447,199.718 107.593,199.718 106.093,198.629 105.52,196.865 106.093,195.102 107.593,194.012 109.447,194.012 110.947,195.102 111.52,196.865" stroke-linejoin="round"/>
   <polygon fill="#d85218" points="165.032,198.263 163.532,199.353 161.678,199.353 160.178,198.263 159.605,196.5 160.178,194.736 161.678,193.646 163.532,193.646 165.032,194.736 165.605,196.5" shape-rendering="crispEdges"/>
   <polyline stroke-linecap="round" fill="none" stroke="#d85218" stroke-width="0.5" points="165.605,196.5 165.032,198.263 163.532,199.353 161.678,199.353 160.178,198.263 159.605,196.5 160.178,194.736 161.678,193.646 163.532,193.646 165.032,194.736 165.605,196.5" stroke-linejoin="round"/>
   <polygon fill="#d85218" points="219.117,197.897 217.617,198.987 215.763,198.987 214.263,197.897 213.69,196.134 214.263,194.371 215.763,193.281 217.617,193.281 219.117,194.371 219.69,196.134" shape-rendering="crispEdges"/>
   <polyline stroke-linecap="round" fill="none" stroke="#d85218" stroke-width="0.5" points="219.69,196.134 219.117,197.897 217.617,198.987 215.763,198.987 214.263,197.897 213.69,196.134 214.263,194.371 215.763,193.281 217.617,193.281 219.117,194.371 219.69,196.134" stroke-linejoin="round"/>
   <polygon fill="#d85218" points="273.203,197.532 271.703,198.621 269.849,198.621 268.349,197.532 267.776,195.768 268.349,194.005 269.849,192.915 271.703,192.915 273.203,194.005 273.776,195.768" shape-rendering="crispEdges"/>
   <polyline stroke-linecap="round" fill="none" stroke="#d85218" stroke-width="0.5" points="273.776,195.768 273.203,197.532 271.703,198.621 269.849,198.621 268.349,197.532 267.776,195.768 268.349,194.005 269.849,192.915 271.703,192.915 273.203,194.005 273.776,195.768" stroke-linejoin="round"/>
   <polygon fill="#d85218" points="327.288,197.166 325.788,198.256 323.934,198.256 322.434,197.166 321.861,195.403 322.434,193.639 323.934,192.549 325.788,192.549 327.288,193.639 327.861,195.403" shape-rendering="crispEdges"/>
   <polyline stroke-linecap="round" fill="none" stroke="#d85218" stroke-width="0.5" points="327.861,195.403 327.288,197.166 325.788,198.256 323.934,198.256 322.434,197.166 321.861,195.403 322.434,193.639 323.934,192.549 325.788,192.549 327.288,193.639 327.861,195.403" stroke-linejoin="round"/>
   <polygon fill="#d85218" points="381.373,196.8 379.873,197.89 378.019,197.89 376.519,196.8 375.946,195.037 376.519,193.274 378.019,192.184 379.873,192.184 381.373,193.274 381.946,195.037" shape-rendering="crispEdges"/>
   <polyline stroke-linecap="round" fill="none" stroke="#d85218" stroke-width="0.5" points="381.946,195.037 381.373,196.8 379.873,197.89 378.019,197.89 376.519,196.8 375.946,195.037 376.519,193.274 378.019,192.184 379.873,192.184 381.373,193.274 381.946,195.037" stroke-linejoin="round"/>
   <polyline stroke-linecap="butt" fill="none" stroke="#ecb01f" stroke-width="0.5" points="54.4343,279.499 57.7122,279.499 60.9901,279.499 64.268,279.499 67.5459,279.499 70.8238,279.499 74.1017,279.499 77.3796,279.499 80.6575,279.499 83.9354,59.7514 87.2133,59.7514 90.4912,59.7514 93.7691,59.7514 97.047,59.7514 100.325,59.7514 103.603,59.7514 106.881,59.7514 110.159,59.7514 113.436,59.7514 116.714,59.7514 119.992,59.7514 123.27,59.7514 126.548,59.7514 129.826,59.7514 133.104,59.7514 136.382,50.2448 139.66,50.2448 142.938,50.2448 146.215,50.2448 149.493,50.2448 152.771,50.2448 156.049,50.2448 159.327,50.2448 162.605,50.2448 165.883,50.2448 169.161,50.2448 172.439,50.2448 175.717,50.2448 178.994,50.2448 182.272,50.2448 185.55,50.2448 188.828,50.2448 192.106,49.8792 195.384,49.8792 198.662,49.8792 201.94,49.8792 205.218,49.8792 208.496,49.8792 211.773,49.8792 215.051,49.8792 218.329,49.8792 221.607,49.8792 224.885,49.8792 228.163,49.8792 231.441,49.8792 234.719,49.8792 237.997,49.8792 241.275,49.8792 244.552,49.5135 247.83,49.5135 251.108,49.5135 254.386,49.5135 257.664,49.5135 260.942,49.5135 264.22,49.5135 267.498,49.5135 270.776,49.5135 274.054,49.5135 277.331,49.5135 280.609,49.5135 283.887,49.5135 287.165,49.5135 290.443,49.5135 293.721,49.5135 296.999,49.5135 300.277,49.1479 303.555,49.1479 306.833,49.1479 310.11,49.1479 313.388,49.1479 316.666,49.1479 319.944,49.1479 323.222,49.1479 326.5,49.1479 329.778,49.1479 333.056,49.1479 336.334,49.1479 339.612,49.1479 342.889,49.1479 346.167,49.1479 349.445,49.1479 352.723,48.7823 356.001,48.7823 359.279,48.7823 362.557,48.7823 365.835,48.7823 369.113,48.7823 372.391,48.7823 375.668,48.7823 378.946,48.7823" stroke-linejoin="round"/>
   <polyline stroke-linecap="butt" fill="none" stroke="#ecb01f" stroke-width="0.5" points="54.4343,279.499 57.7122,266.181 60.9901,252.863 64.268,239.545 67.5459,226.227 70.8238,212.909 74.1017,199.591 77.3796,186.273 80.6575,172.955 83.9354,159.637 87.2133,146.319 90.4912,133.001 93.7691,119.683 97.047,106.365 100.325,93.0465 103.603,79.7284 106.881,66.4104 110.159,59.4633 113.436,58.8871 116.714,58.311 119.992,57.7348 123.27,57.1587 126.548,56.5825 129.826,56.0063 133.104,55.4302 136.382,54.854 139.66,54.2779 142.938,53.7018 146.215,53.1256 149.493,52.5494 152.771,51.9733 156.049,51.3971 159.327,50.821 162.605,50.2448 165.883,50.2227 169.161,50.2005 172.439,50.1783 175.717,50.1562 178.994,50.134 182.272,50.1118 185.55,50.0897 188.828,50.0675 192.106,50.0453 195.384,50.0232 198.662,50.001 201.94,49.9789 205.218,49.9567 208.496,49.9346 211.773,49.9124 215.051,49.8902 218.329,49.8681 221.607,49.8459 224.885,49.8238 228.163,49.8016 231.441,49.7794 234.719,49.7573 237.997,49.7351 241.275,49.713 244.552,49.6908 247.83,49.6686 251.108,49.6465 254.386,49.6243 257.664,49.6022 260.942,49.58 264.22,49.5578 267.498,49.5357 270.776,49.5135 274.054,49.4914 277.331,49.4692 280.609,49.4471 283.887,49.4249 287.165,49.4027 290.443,49.3806 293.721,49.3584 296.999,49.3362 300.277,49.3141 303.555,49.2919 306.833,49.2697 310.11,49.2476 313.388,49.2255 316.666,49.2033 319.944,49.1811 323.222,49.159 326.5,49.1368 329.778,49.1147 333.056,49.0925 336.334,49.0703 339.612,49.0482 342.889,49.026 346.167,49.0038 349.445,48.9817 352.723,48.9595 356.001,48.9373 359.279,48.9152 362.557,48.8931 365.835,48.8709 369.113,48.8487 372.391,48.8266 375.668,48.8044 378.946,48.7823" stroke-linejoin="round"/>
   <polyline stroke-linecap="butt" fill="none" stroke="#ecb01f" stroke-width="0.5" points="54.4343,279.499 57.7122,259.864 60.9901,240.421 64.268,221.3 67.5459,202.629 70.8238,184.537 74.1017,167.153 77.3796,150.606 80.6575,135.024 83.9354,120.537 87.2133,107.272 90.4912,95.3586 93.7691,84.9259 97.047,76.1024 100.325,69.0168 103.603,63.7979 106.881,60.5745 110.159,59.207 113.436,58.166 116.714,57.1885 119.992,56.2748 123.27,55.4249 126.548,54.6389 129.826,53.917 133.104,53.2592 136.382,52.6657 139.66,52.1365 142.938,51.6719 146.215,51.2719 149.493,50.9366 152.771,50.6661 156.049,50.4606 159.327,50.3201 162.605,50.2448 165.883,50.2045 169.161,50.1688 172.439,50.1371 175.717,50.109 178.994,50.0842 182.272,50.062 185.55,50.0421 188.828,50.024 192.106,50.0072 195.384,49.9913 198.662,49.976 201.94,49.9606 205.218,49.9447 208.496,49.928 211.773,49.9099 215.051,49.8899 218.329,49.8681 221.607,49.8459 224.885,49.8238 228.163,49.8016 231.441,49.7794 234.719,49.7573 237.997,49.7351 241.275,49.713 244.552,49.6908 247.83,49.6686 251.108,49.6465 254.386,49.6243 257.664,49.6022 260.942,49.58 264.22,49.5578 267.498,49.5357 270.776,49.5135 274.054,49.4914 277.331,49.4692 280.609,49.4471 283.887,49.4249 287.165,49.4027 290.443,49.3806 293.721,49.3584 296.999,49.3362 300.277,49.3141 303.555,49.2919 306.833,49.2697 310.11,49.2476 313.388,49.2255 316.666,49.2033 319.944,49.1811 323.222,49.159 326.5,49.1368 329.778,49.1147 333.056,49.0925 336.334,49.0703 339.612,49.0482 342.889,49.026 346.167,49.0038 349.445,48.9817 352.723,48.9595 356.001,48.9373 359.279,48.9152 362.557,48.8931 365.835,48.8709 369.113,48.8487 372.391,48.8266 375.668,48.8044 378.946,48.7823" stroke-linejoin="round"/>
   <polyline stroke-linecap="butt" fill="none" stroke="#ecb01f" stroke-width="0.5" points="54.4343,279.499 57.7122,59.7514 60.9901,59.7514 64.268,59.7514 67.5459,59.7514 70.8238,59.7514 74.1017,59.7514 77.3796,59.7514 80.6575,59.7514 83.9354,59.7514 87.2133,59.7514 90.4912,59.7514 93.7691,59.7514 97.047,59.7514 100.325,59.7514 103.603,59.7514 106.881,59.7514 110.159,50.2448 113.436,50.2448 116.714,50.2448 119.992,50.2448 123.27,50.2448 126.548,50.2448 129.826,50.2448 133.104,50.2448 136.382,50.2448 139.66,50.2448 142.938,50.2448 146.215,50.2448 149.493,50.2448 152.771,50.2448 156.049,50.2448 159.327,50.2448 162.605,50.2448 165.883,49.8792 169.161,49.8792 172.439,49.8792 175.717,49.8792 178.994,49.8792 182.272,49.8792 185.55,49.8792 188.828,49.8792 192.106,49.8792 195.384,49.8792 198.662,49.8792 201.94,49.8792 205.218,49.8792 208.496,49.8792 211.773,49.8792 215.051,49.8792 218.329,49.5135 221.607,49.5135 224.885,49.5135 228.163,49.5135 231.441,49.5135 234.719,49.5135 237.997,49.5135 241.275,49.5135 244.552,49.5135 247.83,49.5135 251.108,49.5135 254.386,49.5135 257.664,49.5135 260.942,49.5135 264.22,49.5135 267.498,49.5135 270.776,49.5135 274.054,49.1479 277.331,49.1479 280.609,49.1479 283.887,49.1479 287.165,49.1479 290.443,49.1479 293.721,49.1479 296.999,49.1479 300.277,49.1479 303.555,49.1479 306.833,49.1479 310.11,49.1479 313.388,49.1479 316.666,49.1479 319.944,49.1479 323.222,49.1479 326.5,48.7823 329.778,48.7823 333.056,48.7823 336.334,48.7823 339.612,48.7823 342.889,48.7823 346.167,48.7823 349.445,48.7823 352.723,48.7823 356.001,48.7823 359.279,48.7823 362.557,48.7823 365.835,48.7823 369.113,48.7823 372.391,48.7823 375.668,48.7823 378.946,48.7823" stroke-linejoin="round"/>
   <polygon fill="#ecb01f" points="56.8613,281.263 55.3613,282.352 53.5072,282.352 52.0072,281.263 51.4343,279.499 52.0072,277.736 53.5072,276.646 55.3613,276.646 56.8613,277.736 57.4343,279.499" shape-rendering="crispEdges"/>
   <polyline stroke-linecap="round" fill="none" stroke="#ecb01f" stroke-width="0.5" points="57.4343,279.499 56.8613,281.263 55.3613,282.352 53.5072,282.352 52.0072,281.263 51.4343,279.499 52.0072,277.736 53.5072,276.646 55.3613,276.646 56.8613,277.736 57.4343,279.499" stroke-linejoin="round"/>
   <polygon fill="#ecb01f" points="110.947,61.5147 109.447,62.6045 107.593,62.6045 106.093,61.5147 105.52,59.7514 106.093,57.988 107.593,56.8982 109.447,56.8982 110.947,57.988 111.52,59.7514" shape-rendering="crispEdges"/>
   <polyline stroke-linecap="round" fill="none" stroke="#ecb01f" stroke-width="0.5" points="111.52,59.7514 110.947,61.5147 109.447,62.6045 107.593,62.6045 106.093,61.5147 105.52,59.7514 106.093,57.988 107.593,56.8982 109.447,56.8982 110.947,57.988 111.52,59.7514" stroke-linejoin="round"/>
   <polygon fill="#ecb01f" points="165.032,52.0081 163.532,53.098 161.678,53.098 160.178,52.0081 159.605,50.2448 160.178,48.4814 161.678,47.3916 163.532,47.3916 165.032,48.4814 165.605,50.2448" shape-rendering="crispEdges"/>
   <polyline stroke-linecap="round" fill="none" stroke="#ecb01f" stroke-width="0.5" points="165.605,50.2448 165.032,52.0081 163.532,53.098 161.678,53.098 160.178,52.0081 159.605,50.2448 160.178,48.4814 161.678,47.3916 163.532,47.3916 165.032,48.4814 165.605,50.2448" stroke-linejoin="round"/>
   <polygon fill="#ecb01f" points="219.117,51.6425 217.617,52.7323 215.763,52.7323 214.263,51.6425 213.69,49.8792 214.263,48.1158 215.763,47.026 217.617,47.026 219.117,48.1158 219.69,49.8792" shape-rendering="crispEdges"/>
   <polyline stroke-linecap="round" fill="none" stroke="#ecb01f" stroke-width="0.5" points="219.69,49.8792 219.117,51.6425 217.617,52.7323 215.763,52.7323 214.263,51.6425 213.69,49.8792 214.263,48.1158 215.763,47.026 217.617,47.026 219.117,48.1158 219.69,49.8792" stroke-linejoin="round"/>
   <polygon fill="#ecb01f" points="273.203,51.2769 271.703,52.3667 269.849,52.3667 268.349,51.2769 267.776,49.5135 268.349,47.7502 269.849,46.6604 271.703,46.6604 273.203,47.7502 273.776,49.5135" shape-rendering="crispEdges"/>
   <polyline stroke-linecap="round" fill="none" stroke="#ecb01f" stroke-width="0.5" points="273.776,49.5135 273.203,51.2769 271.703,52.3667 269.849,52.3667 268.349,51.2769 267.776,49.5135 268.349,47.7502 269.849,46.6604 271.703,46.6604 273.203,47.7502 273.776,49.5135" stroke-linejoin="round"/>
   <polygon fill="#ecb01f" points="327.288,50.9112 325.788,52.001 323.934,52.001 322.434,50.9112 321.861,49.1479 322.434,47.3845 323.934,46.2947 325.788,46.2947 327.288,47.3845 327.861,49.1479" shape-rendering="crispEdges"/>
   <polyline stroke-linecap="round" fill="none" stroke="#ecb01f" stroke-width="0.5" points="327.861,49.1479 327.288,50.9112 325.788,52.001 323.934,52.001 322.434,50.9112 321.861,49.1479 322.434,47.3845 323.934,46.2947 325.788,46.2947 327.288,47.3845 327.861,49.1479" stroke-linejoin="round"/>
   <polygon fill="#ecb01f" points="381.373,50.5456 379.873,51.6354 378.019,51.6354 376.519,50.5456 375.946,48.7823 376.519,47.0189 378.019,45.9291 379.873,45.9291 381.373,47.0189 381.946,48.7823" shape-rendering="crispEdges"/>
   <polyline stroke-linecap="round" fill="none" stroke="#ecb01f" stroke-width="0.5" points="381.946,48.7823 381.373,50.5456 379.873,51.6354 378.019,51.6354 376.519,50.5456 375.946,48.7823 376.519,47.0189 378.019,45.9291 379.873,45.9291 381.373,47.0189 381.946,48.7823" stroke-linejoin="round"/>
  </g>
 </g>
</svg>
