<?xml version='1.0' encoding='UTF-8' standalone='no'?>
<svg height="374pt" xmlns="http://www.w3.org/2000/svg" width="499pt" xmlns:xlink="http://www.w3.org/1999/xlink" viewBox="0 0 499 374">
 <title>gl2ps_renderer figure</title>
 <desc>
Creator: GL2PS 1.4.2, (C) 1999-2020 C. Geuzaine
For: Octave
CreationDate: Fri Feb 26 18:02:00 2021
</desc>
 <defs/>
 <polygon fill="#ffffff" points="0,0 499,0 499,374 0,374"/>
 <g>
  <polygon fill="#ffffff" shape-rendering="crispEdges" points="0,374 499,374 499,0 0,0"/>
  <clipPath id="cp00499374">
   <polygon points="0,374 499,374 499,0 0,0"/>
  </clipPath>
  <g clip-path="url(#cp00499374)">
   <polygon fill="#ffffff" shape-rendering="crispEdges" points="64.9969,333.734 452.478,333.734 452.478,28.1237 64.9969,28.1237"/>
   <polyline stroke-linecap="butt" stroke-linejoin="miter" stroke-opacity="0.15" fill="none" stroke="#262626" stroke-width="0.5" points="64.9969,333.734 64.9969,28.1237" stroke-dasharray="16,0"/>
   <polyline stroke-linecap="butt" stroke-linejoin="miter" stroke-opacity="0.15" fill="none" stroke="#262626" stroke-width="0.5" points="120.351,333.734 120.351,28.1237" stroke-dasharray="16,0"/>
   <polyline stroke-linecap="butt" stroke-linejoin="miter" stroke-opacity="0.15" fill="none" stroke="#262626" stroke-width="0.5" points="175.706,333.734 175.706,28.1237" stroke-dasharray="16,0"/>
   <polyline stroke-linecap="butt" stroke-linejoin="miter" stroke-opacity="0.15" fill="none" stroke="#262626" stroke-width="0.5" points="231.06,333.734 231.06,28.1237" stroke-dasharray="16,0"/>
   <polyline stroke-linecap="butt" stroke-linejoin="miter" stroke-opacity="0.15" fill="none" stroke="#262626" stroke-width="0.5" points="286.415,333.734 286.415,28.1237" stroke-dasharray="16,0"/>
   <polyline stroke-linecap="butt" stroke-linejoin="miter" stroke-opacity="0.15" fill="none" stroke="#262626" stroke-width="0.5" points="341.769,333.734 341.769,28.1237" stroke-dasharray="16,0"/>
   <polyline stroke-linecap="butt" stroke-linejoin="miter" stroke-opacity="0.15" fill="none" stroke="#262626" stroke-width="0.5" points="397.124,333.734 397.124,28.1237" stroke-dasharray="16,0"/>
   <polyline stroke-linecap="butt" stroke-linejoin="miter" stroke-opacity="0.15" fill="none" stroke="#262626" stroke-width="0.5" points="452.478,333.734 452.478,28.1237" stroke-dasharray="16,0"/>
   <polyline stroke-linecap="butt" stroke-linejoin="miter" fill="none" stroke="#262626" stroke-width="0.5" points="64.9969,333.734 64.9969,329.864"/>
   <polyline stroke-linecap="butt" stroke-linejoin="miter" fill="none" stroke="#262626" stroke-width="0.5" points="120.351,333.734 120.351,329.864"/>
   <polyline stroke-linecap="butt" stroke-linejoin="miter" fill="none" stroke="#262626" stroke-width="0.5" points="175.706,333.734 175.706,329.864"/>
   <polyline stroke-linecap="butt" stroke-linejoin="miter" fill="none" stroke="#262626" stroke-width="0.5" points="231.06,333.734 231.06,329.864"/>
   <polyline stroke-linecap="butt" stroke-linejoin="miter" fill="none" stroke="#262626" stroke-width="0.5" points="286.415,333.734 286.415,329.864"/>
   <polyline stroke-linecap="butt" stroke-linejoin="miter" fill="none" stroke="#262626" stroke-width="0.5" points="341.769,333.734 341.769,329.864"/>
   <polyline stroke-linecap="butt" stroke-linejoin="miter" fill="none" stroke="#262626" stroke-width="0.5" points="397.124,333.734 397.124,329.864"/>
   <polyline stroke-linecap="butt" stroke-linejoin="miter" fill="none" stroke="#262626" stroke-width="0.5" points="452.478,333.734 452.478,329.864"/>
   <text transform="translate(57.4968,349.224) rotate(-0,7.5,-8)" font-weight="normal" font-style="normal" font-size="10" xml:space="preserve" font-family="FreeSans">
    <tspan fill="rgb(38,38,38)" x="0 6 9 " y="-0">0.3</tspan>
   </text>
   <text transform="translate(112.851,349.224) rotate(-0,7.5,-8)" font-weight="normal" font-style="normal" font-size="10" xml:space="preserve" font-family="FreeSans">
    <tspan fill="rgb(38,38,38)" x="0 6 9 " y="-0">0.4</tspan>
   </text>
   <text transform="translate(168.206,349.224) rotate(-0,7.5,-8)" font-weight="normal" font-style="normal" font-size="10" xml:space="preserve" font-family="FreeSans">
    <tspan fill="rgb(38,38,38)" x="0 6 9 " y="-0">0.5</tspan>
   </text>
   <text transform="translate(223.56,349.224) rotate(-0,7.5,-8)" font-weight="normal" font-style="normal" font-size="10" xml:space="preserve" font-family="FreeSans">
    <tspan fill="rgb(38,38,38)" x="0 6 9 " y="-0">0.6</tspan>
   </text>
   <text transform="translate(278.915,349.224) rotate(-0,7.5,-8)" font-weight="normal" font-style="normal" font-size="10" xml:space="preserve" font-family="FreeSans">
    <tspan fill="rgb(38,38,38)" x="0 6 9 " y="-0">0.7</tspan>
   </text>
   <text transform="translate(334.269,349.224) rotate(-0,7.5,-8)" font-weight="normal" font-style="normal" font-size="10" xml:space="preserve" font-family="FreeSans">
    <tspan fill="rgb(38,38,38)" x="0 6 9 " y="-0">0.8</tspan>
   </text>
   <text transform="translate(389.624,349.224) rotate(-0,7.5,-8)" font-weight="normal" font-style="normal" font-size="10" xml:space="preserve" font-family="FreeSans">
    <tspan fill="rgb(38,38,38)" x="0 6 9 " y="-0">0.9</tspan>
   </text>
   <text transform="translate(449.478,349.224) rotate(-0,3,-8)" font-weight="normal" font-style="normal" font-size="10" xml:space="preserve" font-family="FreeSans">
    <tspan fill="rgb(38,38,38)" x="0 " y="-0">1</tspan>
   </text>
   <polyline stroke-linecap="butt" stroke-linejoin="miter" stroke-opacity="0.15" fill="none" stroke="#262626" stroke-width="0.5" points="64.9969,333.734 452.478,333.734" stroke-dasharray="16,0"/>
   <polyline stroke-linecap="butt" stroke-linejoin="miter" stroke-opacity="0.15" fill="none" stroke="#262626" stroke-width="0.5" points="64.9969,257.331 452.478,257.331" stroke-dasharray="16,0"/>
   <polyline stroke-linecap="butt" stroke-linejoin="miter" stroke-opacity="0.15" fill="none" stroke="#262626" stroke-width="0.5" points="64.9969,180.929 452.478,180.929" stroke-dasharray="16,0"/>
   <polyline stroke-linecap="butt" stroke-linejoin="miter" stroke-opacity="0.15" fill="none" stroke="#262626" stroke-width="0.5" points="64.9969,104.526 452.478,104.526" stroke-dasharray="16,0"/>
   <polyline stroke-linecap="butt" stroke-linejoin="miter" stroke-opacity="0.15" fill="none" stroke="#262626" stroke-width="0.5" points="64.9969,28.1237 452.478,28.1237" stroke-dasharray="16,0"/>
   <polyline stroke-linecap="butt" stroke-linejoin="miter" fill="none" stroke="#262626" stroke-width="0.5" points="64.9969,333.734 68.8765,333.734"/>
   <polyline stroke-linecap="butt" stroke-linejoin="miter" fill="none" stroke="#262626" stroke-width="0.5" points="64.9969,257.331 68.8765,257.331"/>
   <polyline stroke-linecap="butt" stroke-linejoin="miter" fill="none" stroke="#262626" stroke-width="0.5" points="64.9969,180.929 68.8765,180.929"/>
   <polyline stroke-linecap="butt" stroke-linejoin="miter" fill="none" stroke="#262626" stroke-width="0.5" points="64.9969,104.526 68.8765,104.526"/>
   <polyline stroke-linecap="butt" stroke-linejoin="miter" fill="none" stroke="#262626" stroke-width="0.5" points="64.9969,28.1237 68.8765,28.1237"/>
   <text transform="translate(41.9906,337.734) rotate(-0,18,-4)" font-weight="normal" font-style="normal" font-size="10" xml:space="preserve" font-family="FreeSans">
    <tspan fill="rgb(38,38,38)" x="0 3 9 12 " y="-0">-0.5</tspan>
   </text>
   <text transform="translate(41.9906,261.331) rotate(-0,18,-4)" font-weight="normal" font-style="normal" font-size="10" xml:space="preserve" font-family="FreeSans">
    <tspan fill="rgb(38,38,38)" x="0 3 9 12 " y="-0">-0.4</tspan>
   </text>
   <text transform="translate(41.9906,184.929) rotate(-0,18,-4)" font-weight="normal" font-style="normal" font-size="10" xml:space="preserve" font-family="FreeSans">
    <tspan fill="rgb(38,38,38)" x="0 3 9 12 " y="-0">-0.3</tspan>
   </text>
   <text transform="translate(41.9906,108.526) rotate(-0,18,-4)" font-weight="normal" font-style="normal" font-size="10" xml:space="preserve" font-family="FreeSans">
    <tspan fill="rgb(38,38,38)" x="0 3 9 12 " y="-0">-0.2</tspan>
   </text>
   <text transform="translate(41.9906,32.1236) rotate(-0,18,-4)" font-weight="normal" font-style="normal" font-size="10" xml:space="preserve" font-family="FreeSans">
    <tspan fill="rgb(38,38,38)" x="0 3 9 12 " y="-0">-0.1</tspan>
   </text>
   <polyline stroke-linecap="square" stroke-linejoin="miter" fill="none" stroke="#262626" stroke-width="0.5" points="64.9969,333.734 452.478,333.734" stroke-dasharray="16,0"/>
   <polyline stroke-linecap="square" stroke-linejoin="miter" fill="none" stroke="#262626" stroke-width="0.5" points="64.9969,333.734 64.9969,28.1237" stroke-dasharray="16,0"/>
   <text transform="translate(255.237,363.224) rotate(-0,3.5,-9)" font-weight="normal" font-style="normal" font-size="11" xml:space="preserve" font-family="FreeSans">
    <tspan fill="rgb(38,38,38)" x="0 " y="-0">X</tspan>
   </text>
   <text transform="translate(33.4906,180.929) rotate(-90,3.5,0)" font-weight="normal" font-style="normal" font-size="11" xml:space="preserve" font-family="FreeSans">
    <tspan fill="rgb(38,38,38)" x="0 " y="-0">Y</tspan>
   </text>
   <polyline stroke-linecap="butt" stroke-linejoin="round" fill="none" stroke="#000000" stroke-width="0.5" points="73.2845,184.848 76.8067,189.083 80.329,193.28 83.8512,197.437 87.3735,201.553 90.8957,205.625 94.4179,209.653 97.9402,213.635 101.462,217.569 104.985,221.453 108.507,225.285 112.029,229.065 115.551,232.789 119.074,236.456 122.596,240.065 126.118,243.613 129.64,247.099 133.163,250.52 136.685,253.875 140.207,257.161 143.729,260.376 147.252,263.519 150.774,266.588 154.296,269.579 157.818,272.492 161.341,275.323 164.863,278.071 168.385,280.733 171.907,283.307 175.43,285.791 178.952,288.183 182.474,290.479 185.996,292.678 189.518,294.777 193.041,296.774 196.563,298.666 200.085,300.451 203.607,302.125 207.13,303.688 210.652,305.135 214.174,306.465 217.696,307.674 221.219,308.76 224.741,309.72 228.263,310.552 231.785,311.252 235.308,311.818 238.83,312.247 242.352,312.536 245.874,312.682 249.397,312.682 252.919,312.534 256.441,312.233 259.963,311.778 263.486,311.165 267.008,310.391 270.53,309.453 274.052,308.347 277.574,307.071 281.097,305.621 284.619,303.995 288.141,302.188 291.663,300.198 295.186,298.02 298.708,295.653 302.23,293.092 305.752,290.334 309.275,287.375 312.797,284.212 316.319,280.842 319.841,277.261 323.364,273.465 326.886,269.451 330.408,265.215 333.93,260.754 337.453,256.063 340.975,251.139 344.497,245.979 348.019,240.578 351.542,234.933 355.064,229.039 358.586,222.894 362.108,216.492 365.631,209.831 369.153,202.906 372.675,195.713 376.197,188.248 379.72,180.507 383.242,172.486 386.764,164.181 390.286,155.587 393.808,146.701 397.331,137.518 400.853,128.035 404.375,118.246 407.897,108.148 411.42,97.7357 414.942,87.0053 418.464,75.9525 421.986,64.5725"/>
   <polygon fill="#0071bc" shape-rendering="crispEdges" points="242.635,317.7 252.635,317.7 252.635,307.7 242.635,307.7"/>
   <polyline stroke-linecap="square" stroke-linejoin="miter" fill="none" stroke="#0071bc" stroke-width="0.5" points="242.635,307.7 242.635,317.7 252.635,317.7 252.635,307.7 242.635,307.7"/>
  </g>
 </g>
</svg>
