<?xml version='1.0' encoding='UTF-8' standalone='no'?>
<svg width="1021pt" height="584pt" viewBox="0 0 1021 584" xmlns:xlink="http://www.w3.org/1999/xlink" xmlns="http://www.w3.org/2000/svg">
 <title>gl2ps_renderer figure</title>
 <desc>
Creator: GL2PS 1.4.2, (C) 1999-2020 C. Geuzaine
For: Octave
CreationDate: Sun Mar 28 22:55:23 2021
</desc>
 <defs/>
 <polygon fill="#ffffff" points="0,0 1021,0 1021,584 0,584"/>
 <g>
  <polygon fill="#ffffff" points="0,584 1021,584 1021,0 0,0" shape-rendering="crispEdges"/>
  <clipPath id="cp001021584">
   <polygon points="0,584 1021,584 1021,0 0,0"/>
  </clipPath>
  <g clip-path="url(#cp001021584)">
   <polygon fill="#ffffff" points="132.779,520.466 924.348,520.466 924.348,43.8594 132.779,43.8594" shape-rendering="crispEdges"/>
   <polyline fill="none" stroke-width="0.5" points="132.779,520.466 132.779,43.8594" stroke-linejoin="miter" stroke-dasharray="16,0" stroke="#262626" stroke-linecap="butt" stroke-opacity="0.15"/>
   <polyline fill="none" stroke-width="0.5" points="291.093,520.466 291.093,43.8594" stroke-linejoin="miter" stroke-dasharray="16,0" stroke="#262626" stroke-linecap="butt" stroke-opacity="0.15"/>
   <polyline fill="none" stroke-width="0.5" points="449.407,520.466 449.407,43.8594" stroke-linejoin="miter" stroke-dasharray="16,0" stroke="#262626" stroke-linecap="butt" stroke-opacity="0.15"/>
   <polyline fill="none" stroke-width="0.5" points="607.72,520.466 607.72,43.8594" stroke-linejoin="miter" stroke-dasharray="16,0" stroke="#262626" stroke-linecap="butt" stroke-opacity="0.15"/>
   <polyline fill="none" stroke-width="0.5" points="766.034,520.466 766.034,43.8594" stroke-linejoin="miter" stroke-dasharray="16,0" stroke="#262626" stroke-linecap="butt" stroke-opacity="0.15"/>
   <polyline fill="none" stroke-width="0.5" points="924.348,520.466 924.348,43.8594" stroke-linejoin="miter" stroke-dasharray="16,0" stroke="#262626" stroke-linecap="butt" stroke-opacity="0.15"/>
   <polyline fill="none" stroke-width="0.5" points="132.779,520.466 132.779,512.557" stroke-linejoin="miter" stroke="#262626" stroke-linecap="butt"/>
   <polyline fill="none" stroke-width="0.5" points="291.093,520.466 291.093,512.557" stroke-linejoin="miter" stroke="#262626" stroke-linecap="butt"/>
   <polyline fill="none" stroke-width="0.5" points="449.407,520.466 449.407,512.557" stroke-linejoin="miter" stroke="#262626" stroke-linecap="butt"/>
   <polyline fill="none" stroke-width="0.5" points="607.72,520.466 607.72,512.557" stroke-linejoin="miter" stroke="#262626" stroke-linecap="butt"/>
   <polyline fill="none" stroke-width="0.5" points="766.034,520.466 766.034,512.557" stroke-linejoin="miter" stroke="#262626" stroke-linecap="butt"/>
   <polyline fill="none" stroke-width="0.5" points="924.348,520.466 924.348,512.557" stroke-linejoin="miter" stroke="#262626" stroke-linecap="butt"/>
   <text font-weight="normal" font-size="10" xml:space="preserve" transform="translate(129.779,535.96) rotate(-0,3,-8)" font-family="FreeSans" font-style="normal">
    <tspan fill="rgb(38,38,38)" x="0 " y="-0">0</tspan>
   </text>
   <text font-weight="normal" font-size="10" xml:space="preserve" transform="translate(283.593,535.96) rotate(-0,7.5,-8)" font-family="FreeSans" font-style="normal">
    <tspan fill="rgb(38,38,38)" x="0 6 9 " y="-0">0.2</tspan>
   </text>
   <text font-weight="normal" font-size="10" xml:space="preserve" transform="translate(441.907,535.96) rotate(-0,7.5,-8)" font-family="FreeSans" font-style="normal">
    <tspan fill="rgb(38,38,38)" x="0 6 9 " y="-0">0.4</tspan>
   </text>
   <text font-weight="normal" font-size="10" xml:space="preserve" transform="translate(600.22,535.96) rotate(-0,7.5,-8)" font-family="FreeSans" font-style="normal">
    <tspan fill="rgb(38,38,38)" x="0 6 9 " y="-0">0.6</tspan>
   </text>
   <text font-weight="normal" font-size="10" xml:space="preserve" transform="translate(758.534,535.96) rotate(-0,7.5,-8)" font-family="FreeSans" font-style="normal">
    <tspan fill="rgb(38,38,38)" x="0 6 9 " y="-0">0.8</tspan>
   </text>
   <text font-weight="normal" font-size="10" xml:space="preserve" transform="translate(921.348,535.96) rotate(-0,3,-8)" font-family="FreeSans" font-style="normal">
    <tspan fill="rgb(38,38,38)" x="0 " y="-0">1</tspan>
   </text>
   <polyline fill="none" stroke-width="0.5" points="132.779,520.466 924.348,520.466" stroke-linejoin="miter" stroke-dasharray="16,0" stroke="#262626" stroke-linecap="butt" stroke-opacity="0.15"/>
   <polyline fill="none" stroke-width="0.5" points="132.779,401.314 924.348,401.314" stroke-linejoin="miter" stroke-dasharray="16,0" stroke="#262626" stroke-linecap="butt" stroke-opacity="0.15"/>
   <polyline fill="none" stroke-width="0.5" points="132.779,282.163 924.348,282.163" stroke-linejoin="miter" stroke-dasharray="16,0" stroke="#262626" stroke-linecap="butt" stroke-opacity="0.15"/>
   <polyline fill="none" stroke-width="0.5" points="132.779,163.011 924.348,163.011" stroke-linejoin="miter" stroke-dasharray="16,0" stroke="#262626" stroke-linecap="butt" stroke-opacity="0.15"/>
   <polyline fill="none" stroke-width="0.5" points="132.779,43.8594 924.348,43.8594" stroke-linejoin="miter" stroke-dasharray="16,0" stroke="#262626" stroke-linecap="butt" stroke-opacity="0.15"/>
   <polyline fill="none" stroke-width="0.5" points="132.779,520.466 140.691,520.466" stroke-linejoin="miter" stroke="#262626" stroke-linecap="butt"/>
   <polyline fill="none" stroke-width="0.5" points="132.779,401.314 140.691,401.314" stroke-linejoin="miter" stroke="#262626" stroke-linecap="butt"/>
   <polyline fill="none" stroke-width="0.5" points="132.779,282.163 140.691,282.163" stroke-linejoin="miter" stroke="#262626" stroke-linecap="butt"/>
   <polyline fill="none" stroke-width="0.5" points="132.779,163.011 140.691,163.011" stroke-linejoin="miter" stroke="#262626" stroke-linecap="butt"/>
   <polyline fill="none" stroke-width="0.5" points="132.779,43.8594 140.691,43.8594" stroke-linejoin="miter" stroke="#262626" stroke-linecap="butt"/>
   <text font-weight="normal" font-size="10" xml:space="preserve" transform="translate(112.782,524.466) rotate(-0,15,-4)" font-family="FreeSans" font-style="normal">
    <tspan fill="rgb(38,38,38)" x="0 3 9 " y="-0">-10</tspan>
   </text>
   <text font-weight="normal" font-size="10" xml:space="preserve" transform="translate(118.782,405.314) rotate(-0,9,-4)" font-family="FreeSans" font-style="normal">
    <tspan fill="rgb(38,38,38)" x="0 3 " y="-0">-5</tspan>
   </text>
   <text font-weight="normal" font-size="10" xml:space="preserve" transform="translate(121.782,286.163) rotate(-0,6,-4)" font-family="FreeSans" font-style="normal">
    <tspan fill="rgb(38,38,38)" x="0 " y="-0">0</tspan>
   </text>
   <text font-weight="normal" font-size="10" xml:space="preserve" transform="translate(121.782,167.011) rotate(-0,6,-4)" font-family="FreeSans" font-style="normal">
    <tspan fill="rgb(38,38,38)" x="0 " y="-0">5</tspan>
   </text>
   <text font-weight="normal" font-size="10" xml:space="preserve" transform="translate(115.782,47.8595) rotate(-0,12,-4)" font-family="FreeSans" font-style="normal">
    <tspan fill="rgb(38,38,38)" x="0 6 " y="-0">10</tspan>
   </text>
   <polyline fill="none" stroke-width="0.5" points="132.779,520.466 924.348,520.466" stroke-linejoin="miter" stroke-dasharray="16,0" stroke="#262626" stroke-linecap="square"/>
   <polyline fill="none" stroke-width="0.5" points="132.779,520.466 132.779,43.8594" stroke-linejoin="miter" stroke-dasharray="16,0" stroke="#262626" stroke-linecap="square"/>
   <polyline fill="none" stroke-width="0.5" points="132.779,282.163 140.695,282.374 148.611,282.585 156.526,282.797 164.442,283.009 172.358,283.222 180.273,283.436 188.189,283.65 196.105,283.865 204.02,284.08 211.936,284.296 219.852,284.512 227.767,284.729 235.683,284.946 243.599,285.164 251.515,285.382 259.43,285.601 267.346,285.821 275.262,286.041 283.177,286.261 291.093,286.482 299.009,286.704 306.924,286.926 314.84,287.149 322.756,287.373 330.671,287.596 338.587,287.821 346.503,288.046 354.418,288.272 362.334,288.498 370.25,288.725 378.165,288.952 386.081,289.18 393.997,289.408 401.913,289.637 409.828,289.867 417.744,290.097 425.66,290.328 433.575,290.559 441.491,290.791 449.407,291.024 457.322,291.257 465.238,291.49 473.154,291.725 481.069,291.959 488.985,292.195 496.901,292.431 504.816,292.667 512.732,292.905 520.648,293.142 528.564,293.381 536.479,293.62 544.395,293.859 552.311,294.099 560.226,294.34 568.142,294.582 576.058,294.824 583.973,295.066 591.889,295.309 599.805,295.553 607.72,295.798 615.636,296.043 623.552,296.288 631.467,296.535 639.383,296.781 647.299,297.029 655.215,297.277 663.13,297.526 671.046,297.775 678.962,298.025 686.877,298.276 694.793,298.527 702.709,298.779 710.624,299.031 718.54,299.284 726.456,299.538 734.371,299.793 742.287,300.048 750.203,300.303 758.119,300.56 766.034,300.816 773.95,301.074 781.866,301.332 789.781,301.591 797.697,301.851 805.613,302.111 813.528,302.372 821.444,302.633 829.36,302.895 837.275,303.158 845.191,303.422 853.107,303.686 861.022,303.95 868.938,304.216 876.854,304.482 884.769,304.749 892.685,305.016 900.601,305.284 908.517,305.553 916.432,305.822" stroke-linejoin="round" stroke="#ff0000" stroke-linecap="butt"/>
   <polyline fill="none" stroke-width="0.5" points="132.779,113.657 140.695,103.409 148.611,93.8662 156.526,85.0666 164.442,77.0451 172.358,69.8328 180.273,63.4587 188.189,57.9477 196.105,53.3215 204.02,49.5985 211.936,46.7935 219.852,44.9171 227.767,43.9769 235.683,43.9769 243.599,44.9171 251.515,46.7935 259.43,49.5985 267.346,53.3215 275.262,57.9477 283.177,63.4587 291.093,69.8328 299.009,77.0451 306.924,85.0666 314.84,93.8662 322.756,103.409 330.671,113.657 338.587,124.57 346.503,136.105 354.418,148.216 362.334,160.857 370.25,173.975 378.165,187.521 386.081,201.44 393.997,215.678 401.913,230.178 409.828,244.884 417.744,259.736 425.66,274.677 433.575,289.648 441.491,304.589 449.407,319.441 457.322,334.147 465.238,348.647 473.154,362.885 481.069,376.804 488.985,390.35 496.901,403.469 504.816,416.109 512.732,428.22 520.648,439.755 528.564,282.163 536.479,282.163 544.395,282.163 552.311,282.163 560.226,282.163 568.142,282.163 576.058,282.163 583.973,282.163 591.889,282.163 599.805,282.163 607.72,282.163 615.636,282.163 623.552,282.163 631.467,282.163 639.383,282.163 647.299,282.163 655.215,282.163 663.13,282.163 671.046,282.163 678.962,282.163 686.877,282.163 694.793,282.163 702.709,282.163 710.624,282.163 718.54,282.163 726.456,282.163 734.371,282.163 742.287,282.163 750.203,282.163 758.119,282.163 766.034,282.163 773.95,282.163 781.866,282.163 789.781,282.163 797.697,282.163 805.613,282.163 813.528,282.163 821.444,282.163 829.36,282.163 837.275,282.163 845.191,282.163 853.107,282.163 861.022,282.163 868.938,282.163 876.854,282.163 884.769,282.163 892.685,282.163 900.601,282.163 908.517,282.163 916.432,282.163" stroke-linejoin="round" stroke="#0000ff" stroke-linecap="butt"/>
  </g>
 </g>
</svg>
