<?xml version='1.0' encoding='UTF-8' standalone='no'?>
<svg viewBox="0 0 1119 732" xmlns:xlink="http://www.w3.org/1999/xlink" height="732pt" xmlns="http://www.w3.org/2000/svg" width="1119pt">
 <title>gl2ps_renderer figure</title>
 <desc>
Creator: GL2PS 1.4.2, (C) 1999-2020 C. Geuzaine
For: Octave
CreationDate: Sun Mar 28 22:55:33 2021
</desc>
 <defs/>
 <polygon fill="#ffffff" points="0,0 1119,0 1119,732 0,732"/>
 <g>
  <polygon fill="#ffffff" points="0,732 1119,732 1119,0 0,0" shape-rendering="crispEdges"/>
  <clipPath id="cp001119732">
   <polygon points="0,732 1119,732 1119,0 0,0"/>
  </clipPath>
  <g clip-path="url(#cp001119732)">
   <polygon fill="#ffffff" points="145.546,651.575 1013.23,651.575 1013.23,54.9081 145.546,54.9081" shape-rendering="crispEdges"/>
   <polyline stroke-width="0.5" stroke-dasharray="16,0" stroke="#262626" fill="none" points="145.546,651.575 145.546,54.9081" stroke-linejoin="miter" stroke-linecap="butt" stroke-opacity="0.15"/>
   <polyline stroke-width="0.5" stroke-dasharray="16,0" stroke="#262626" fill="none" points="319.083,651.575 319.083,54.9081" stroke-linejoin="miter" stroke-linecap="butt" stroke-opacity="0.15"/>
   <polyline stroke-width="0.5" stroke-dasharray="16,0" stroke="#262626" fill="none" points="492.619,651.575 492.619,54.9081" stroke-linejoin="miter" stroke-linecap="butt" stroke-opacity="0.15"/>
   <polyline stroke-width="0.5" stroke-dasharray="16,0" stroke="#262626" fill="none" points="666.155,651.575 666.155,54.9081" stroke-linejoin="miter" stroke-linecap="butt" stroke-opacity="0.15"/>
   <polyline stroke-width="0.5" stroke-dasharray="16,0" stroke="#262626" fill="none" points="839.691,651.575 839.691,54.9081" stroke-linejoin="miter" stroke-linecap="butt" stroke-opacity="0.15"/>
   <polyline stroke-width="0.5" stroke-dasharray="16,0" stroke="#262626" fill="none" points="1013.23,651.575 1013.23,54.9081" stroke-linejoin="miter" stroke-linecap="butt" stroke-opacity="0.15"/>
   <polyline stroke-width="0.5" stroke="#262626" fill="none" points="145.546,651.575 145.546,642.904" stroke-linejoin="miter" stroke-linecap="butt"/>
   <polyline stroke-width="0.5" stroke="#262626" fill="none" points="319.083,651.575 319.083,642.904" stroke-linejoin="miter" stroke-linecap="butt"/>
   <polyline stroke-width="0.5" stroke="#262626" fill="none" points="492.619,651.575 492.619,642.904" stroke-linejoin="miter" stroke-linecap="butt"/>
   <polyline stroke-width="0.5" stroke="#262626" fill="none" points="666.155,651.575 666.155,642.904" stroke-linejoin="miter" stroke-linecap="butt"/>
   <polyline stroke-width="0.5" stroke="#262626" fill="none" points="839.691,651.575 839.691,642.904" stroke-linejoin="miter" stroke-linecap="butt"/>
   <polyline stroke-width="0.5" stroke="#262626" fill="none" points="1013.23,651.575 1013.23,642.904" stroke-linejoin="miter" stroke-linecap="butt"/>
   <text font-family="FreeSans" font-weight="normal" font-size="10" xml:space="preserve" font-style="normal" transform="translate(142.547,667.071) rotate(-0,3,-8)">
    <tspan y="-0" x="0 " fill="rgb(38,38,38)">0</tspan>
   </text>
   <text font-family="FreeSans" font-weight="normal" font-size="10" xml:space="preserve" font-style="normal" transform="translate(316.083,667.071) rotate(-0,3,-8)">
    <tspan y="-0" x="0 " fill="rgb(38,38,38)">2</tspan>
   </text>
   <text font-family="FreeSans" font-weight="normal" font-size="10" xml:space="preserve" font-style="normal" transform="translate(489.619,667.071) rotate(-0,3,-8)">
    <tspan y="-0" x="0 " fill="rgb(38,38,38)">4</tspan>
   </text>
   <text font-family="FreeSans" font-weight="normal" font-size="10" xml:space="preserve" font-style="normal" transform="translate(663.155,667.071) rotate(-0,3,-8)">
    <tspan y="-0" x="0 " fill="rgb(38,38,38)">6</tspan>
   </text>
   <text font-family="FreeSans" font-weight="normal" font-size="10" xml:space="preserve" font-style="normal" transform="translate(836.691,667.071) rotate(-0,3,-8)">
    <tspan y="-0" x="0 " fill="rgb(38,38,38)">8</tspan>
   </text>
   <text font-family="FreeSans" font-weight="normal" font-size="10" xml:space="preserve" font-style="normal" transform="translate(1007.23,667.071) rotate(-0,6,-8)">
    <tspan y="-0" x="0 6 " fill="rgb(38,38,38)">10</tspan>
   </text>
   <polyline stroke-width="0.5" stroke-dasharray="16,0" stroke="#262626" fill="none" points="145.546,651.575 1013.23,651.575" stroke-linejoin="miter" stroke-linecap="butt" stroke-opacity="0.15"/>
   <polyline stroke-width="0.5" stroke-dasharray="16,0" stroke="#262626" fill="none" points="145.546,552.131 1013.23,552.131" stroke-linejoin="miter" stroke-linecap="butt" stroke-opacity="0.15"/>
   <polyline stroke-width="0.5" stroke-dasharray="16,0" stroke="#262626" fill="none" points="145.546,452.686 1013.23,452.686" stroke-linejoin="miter" stroke-linecap="butt" stroke-opacity="0.15"/>
   <polyline stroke-width="0.5" stroke-dasharray="16,0" stroke="#262626" fill="none" points="145.546,353.242 1013.23,353.242" stroke-linejoin="miter" stroke-linecap="butt" stroke-opacity="0.15"/>
   <polyline stroke-width="0.5" stroke-dasharray="16,0" stroke="#262626" fill="none" points="145.546,253.797 1013.23,253.797" stroke-linejoin="miter" stroke-linecap="butt" stroke-opacity="0.15"/>
   <polyline stroke-width="0.5" stroke-dasharray="16,0" stroke="#262626" fill="none" points="145.546,154.353 1013.23,154.353" stroke-linejoin="miter" stroke-linecap="butt" stroke-opacity="0.15"/>
   <polyline stroke-width="0.5" stroke-dasharray="16,0" stroke="#262626" fill="none" points="145.546,54.9081 1013.23,54.9081" stroke-linejoin="miter" stroke-linecap="butt" stroke-opacity="0.15"/>
   <polyline stroke-width="0.5" stroke="#262626" fill="none" points="145.546,651.575 154.22,651.575" stroke-linejoin="miter" stroke-linecap="butt"/>
   <polyline stroke-width="0.5" stroke="#262626" fill="none" points="145.546,552.131 154.22,552.131" stroke-linejoin="miter" stroke-linecap="butt"/>
   <polyline stroke-width="0.5" stroke="#262626" fill="none" points="145.546,452.686 154.22,452.686" stroke-linejoin="miter" stroke-linecap="butt"/>
   <polyline stroke-width="0.5" stroke="#262626" fill="none" points="145.546,353.242 154.22,353.242" stroke-linejoin="miter" stroke-linecap="butt"/>
   <polyline stroke-width="0.5" stroke="#262626" fill="none" points="145.546,253.797 154.22,253.797" stroke-linejoin="miter" stroke-linecap="butt"/>
   <polyline stroke-width="0.5" stroke="#262626" fill="none" points="145.546,154.353 154.22,154.353" stroke-linejoin="miter" stroke-linecap="butt"/>
   <polyline stroke-width="0.5" stroke="#262626" fill="none" points="145.546,54.9081 154.22,54.9081" stroke-linejoin="miter" stroke-linecap="butt"/>
   <text font-family="FreeSans" font-weight="normal" font-size="10" xml:space="preserve" font-style="normal" transform="translate(131.548,655.575) rotate(-0,9,-4)">
    <tspan y="-0" x="0 3 " fill="rgb(38,38,38)">-2</tspan>
   </text>
   <text font-family="FreeSans" font-weight="normal" font-size="10" xml:space="preserve" font-style="normal" transform="translate(134.548,556.131) rotate(-0,6,-4)">
    <tspan y="-0" x="0 " fill="rgb(38,38,38)">0</tspan>
   </text>
   <text font-family="FreeSans" font-weight="normal" font-size="10" xml:space="preserve" font-style="normal" transform="translate(134.548,456.686) rotate(-0,6,-4)">
    <tspan y="-0" x="0 " fill="rgb(38,38,38)">2</tspan>
   </text>
   <text font-family="FreeSans" font-weight="normal" font-size="10" xml:space="preserve" font-style="normal" transform="translate(134.548,357.242) rotate(-0,6,-4)">
    <tspan y="-0" x="0 " fill="rgb(38,38,38)">4</tspan>
   </text>
   <text font-family="FreeSans" font-weight="normal" font-size="10" xml:space="preserve" font-style="normal" transform="translate(134.548,257.797) rotate(-0,6,-4)">
    <tspan y="-0" x="0 " fill="rgb(38,38,38)">6</tspan>
   </text>
   <text font-family="FreeSans" font-weight="normal" font-size="10" xml:space="preserve" font-style="normal" transform="translate(134.548,158.353) rotate(-0,6,-4)">
    <tspan y="-0" x="0 " fill="rgb(38,38,38)">8</tspan>
   </text>
   <text font-family="FreeSans" font-weight="normal" font-size="10" xml:space="preserve" font-style="normal" transform="translate(128.548,58.908) rotate(-0,12,-4)">
    <tspan y="-0" x="0 6 " fill="rgb(38,38,38)">10</tspan>
   </text>
   <polyline stroke-width="0.5" stroke-dasharray="16,0" stroke="#262626" fill="none" points="145.546,651.575 1013.23,651.575" stroke-linejoin="miter" stroke-linecap="square"/>
   <polyline stroke-width="0.5" stroke-dasharray="16,0" stroke="#262626" fill="none" points="145.546,651.575 145.546,54.9081" stroke-linejoin="miter" stroke-linecap="square"/>
   <polyline stroke-width="0.5" stroke="#ff0000" fill="none" points="145.546,552.131 154.223,552.131 162.9,552.131 171.577,552.131 180.254,552.131 188.931,552.131 197.607,552.131 206.284,552.131 214.961,552.131 223.638,552.131 232.315,552.131 240.991,552.131 249.668,552.131 258.345,552.131 267.022,552.131 275.699,552.131 284.375,552.131 293.052,552.131 301.729,552.131 310.406,552.131 319.083,552.131 327.759,552.131 336.436,552.131 345.113,552.131 353.79,552.131 362.467,552.131 371.144,552.131 379.82,552.131 388.497,552.131 397.174,552.131 405.851,552.131 414.528,552.131 423.204,552.131 431.881,552.131 440.558,552.131 449.235,552.131 457.912,552.131 466.588,552.131 475.265,552.131 483.942,552.131 492.619,552.131 501.296,552.131 509.973,552.131 518.649,552.131 527.326,552.131 536.003,552.131 544.68,552.131 553.357,552.131 562.033,552.131 570.71,552.131 579.387,552.131 588.064,552.131 596.741,552.131 605.417,552.131 614.094,552.131 622.771,552.131 631.448,552.131 640.125,552.131 648.802,552.131 657.478,552.131 666.155,552.131 674.832,552.131 683.509,552.131 692.186,552.131 700.862,552.131 709.539,552.131 718.216,552.131 726.893,552.131 735.57,552.131 744.246,552.131 752.923,552.131 761.6,552.131 770.277,552.131 778.954,552.131 787.63,552.131 796.307,552.131 804.984,552.131 813.661,552.131 822.338,552.131 831.015,552.131 839.691,552.131 848.368,552.131 857.045,552.131 865.722,552.131 874.399,552.131 883.075,552.131 891.752,552.131 900.429,552.131 909.106,552.131 917.783,552.131 926.459,552.131 935.136,552.131 943.813,552.131 952.49,552.131 961.167,552.131 969.844,552.131 978.52,552.131 987.197,552.131 995.874,552.131 1004.55,552.131 1013.23,552.131" stroke-linejoin="round" stroke-linecap="butt"/>
   <polyline stroke-width="0.5" stroke="#0000ff" fill="none" points="145.546,552.131 154.223,552.131 162.9,552.131 171.577,552.13 180.254,552.13 188.931,552.129 197.607,552.126 206.284,552.122 214.961,552.113 223.638,552.098 232.315,552.07 240.991,552.02 249.668,551.935 258.345,551.792 267.022,551.555 275.699,551.171 284.375,550.564 293.052,549.624 301.729,548.199 310.406,546.087 319.083,543.024 327.759,538.68 336.436,532.658 345.113,524.497 353.79,513.693 362.467,499.724 371.144,482.093 379.82,460.383 388.497,434.325 397.174,403.861 405.851,369.213 414.528,330.937 423.204,289.949 431.881,247.519 440.558,205.23 449.235,164.893 457.912,128.425 466.588,97.7036 475.265,74.4047 483.942,59.8554 492.619,54.9081 501.296,59.8554 509.973,74.4047 518.649,97.7036 527.326,128.425 536.003,164.893 544.68,205.23 553.357,247.519 562.033,289.949 570.71,330.937 579.387,369.213 588.064,403.861 596.741,434.325 605.417,460.383 614.094,482.093 622.771,499.724 631.448,513.693 640.125,524.497 648.802,532.658 657.478,538.68 666.155,543.024 674.832,546.087 683.509,548.199 692.186,549.624 700.862,550.564 709.539,551.171 718.216,551.555 726.893,551.792 735.57,551.935 744.246,552.02 752.923,552.07 761.6,552.098 770.277,552.113 778.954,552.122 787.63,552.126 796.307,552.129 804.984,552.13 813.661,552.13 822.338,552.131 831.015,552.131 839.691,552.131 848.368,552.131 857.045,552.131 865.722,552.131 874.399,552.131 883.075,552.131 891.752,552.131 900.429,552.131 909.106,552.131 917.783,552.131 926.459,552.131 935.136,552.131 943.813,552.131 952.49,552.131 961.167,552.131 969.844,552.131 978.52,552.131 987.197,552.131 995.874,552.131 1004.55,552.131 1013.23,552.131" stroke-linejoin="round" stroke-linecap="butt"/>
  </g>
 </g>
</svg>
